<?xml version="1.0" encoding="utf-8"?>
<svg xmlns="http://www.w3.org/2000/svg" xmlns:xlink="http://www.w3.org/1999/xlink" width="600" height="400" viewBox="0 0 2400 1600">
<defs>
  <clipPath id="clip690">
    <rect x="0" y="0" width="2400" height="1600"/>
  </clipPath>
</defs>
<path clip-path="url(#clip690)" d="
M0 1600 L2400 1600 L2400 0 L0 0  Z
  " fill="#ffffff" fill-rule="evenodd" fill-opacity="1"/>
<defs>
  <clipPath id="clip691">
    <rect x="480" y="0" width="1681" height="1600"/>
  </clipPath>
</defs>
<path clip-path="url(#clip690)" d="
M140.95 1486.45 L2352.76 1486.45 L2352.76 47.2441 L140.95 47.2441  Z
  " fill="#ffffff" fill-rule="evenodd" fill-opacity="1"/>
<defs>
  <clipPath id="clip692">
    <rect x="140" y="47" width="2213" height="1440"/>
  </clipPath>
</defs>
<polyline clip-path="url(#clip690)" style="stroke:#000000; stroke-linecap:round; stroke-linejoin:round; stroke-width:4; stroke-opacity:1; fill:none" points="
  140.95,1486.45 2352.76,1486.45 
  "/>
<polyline clip-path="url(#clip690)" style="stroke:#000000; stroke-linecap:round; stroke-linejoin:round; stroke-width:4; stroke-opacity:1; fill:none" points="
  159.153,1486.45 159.153,1467.55 
  "/>
<polyline clip-path="url(#clip690)" style="stroke:#000000; stroke-linecap:round; stroke-linejoin:round; stroke-width:4; stroke-opacity:1; fill:none" points="
  603.112,1486.45 603.112,1467.55 
  "/>
<polyline clip-path="url(#clip690)" style="stroke:#000000; stroke-linecap:round; stroke-linejoin:round; stroke-width:4; stroke-opacity:1; fill:none" points="
  1047.07,1486.45 1047.07,1467.55 
  "/>
<polyline clip-path="url(#clip690)" style="stroke:#000000; stroke-linecap:round; stroke-linejoin:round; stroke-width:4; stroke-opacity:1; fill:none" points="
  1491.03,1486.45 1491.03,1467.55 
  "/>
<polyline clip-path="url(#clip690)" style="stroke:#000000; stroke-linecap:round; stroke-linejoin:round; stroke-width:4; stroke-opacity:1; fill:none" points="
  1934.99,1486.45 1934.99,1467.55 
  "/>
<path clip-path="url(#clip690)" d="M159.153 1517.37 Q155.541 1517.37 153.713 1520.93 Q151.907 1524.47 151.907 1531.6 Q151.907 1538.71 153.713 1542.27 Q155.541 1545.82 159.153 1545.82 Q162.787 1545.82 164.592 1542.27 Q166.421 1538.71 166.421 1531.6 Q166.421 1524.47 164.592 1520.93 Q162.787 1517.37 159.153 1517.37 M159.153 1513.66 Q164.963 1513.66 168.018 1518.27 Q171.097 1522.85 171.097 1531.6 Q171.097 1540.33 168.018 1544.94 Q164.963 1549.52 159.153 1549.52 Q153.342 1549.52 150.264 1544.94 Q147.208 1540.33 147.208 1531.6 Q147.208 1522.85 150.264 1518.27 Q153.342 1513.66 159.153 1513.66 Z" fill="#000000" fill-rule="evenodd" fill-opacity="1" /><path clip-path="url(#clip690)" d="M577.8 1544.91 L585.438 1544.91 L585.438 1518.55 L577.128 1520.21 L577.128 1515.95 L585.392 1514.29 L590.068 1514.29 L590.068 1544.91 L597.707 1544.91 L597.707 1548.85 L577.8 1548.85 L577.8 1544.91 Z" fill="#000000" fill-rule="evenodd" fill-opacity="1" /><path clip-path="url(#clip690)" d="M617.151 1517.37 Q613.54 1517.37 611.711 1520.93 Q609.906 1524.47 609.906 1531.6 Q609.906 1538.71 611.711 1542.27 Q613.54 1545.82 617.151 1545.82 Q620.785 1545.82 622.591 1542.27 Q624.42 1538.71 624.42 1531.6 Q624.42 1524.47 622.591 1520.93 Q620.785 1517.37 617.151 1517.37 M617.151 1513.66 Q622.961 1513.66 626.017 1518.27 Q629.096 1522.85 629.096 1531.6 Q629.096 1540.33 626.017 1544.94 Q622.961 1549.52 617.151 1549.52 Q611.341 1549.52 608.262 1544.94 Q605.207 1540.33 605.207 1531.6 Q605.207 1522.85 608.262 1518.27 Q611.341 1513.66 617.151 1513.66 Z" fill="#000000" fill-rule="evenodd" fill-opacity="1" /><path clip-path="url(#clip690)" d="M1025.84 1544.91 L1042.16 1544.91 L1042.16 1548.85 L1020.22 1548.85 L1020.22 1544.91 Q1022.88 1542.16 1027.46 1537.53 Q1032.07 1532.88 1033.25 1531.53 Q1035.5 1529.01 1036.38 1527.27 Q1037.28 1525.51 1037.28 1523.82 Q1037.28 1521.07 1035.34 1519.33 Q1033.41 1517.6 1030.31 1517.6 Q1028.11 1517.6 1025.66 1518.36 Q1023.23 1519.13 1020.45 1520.68 L1020.45 1515.95 Q1023.28 1514.82 1025.73 1514.24 Q1028.18 1513.66 1030.22 1513.66 Q1035.59 1513.66 1038.78 1516.35 Q1041.98 1519.03 1041.98 1523.52 Q1041.98 1525.65 1041.17 1527.57 Q1040.38 1529.47 1038.28 1532.07 Q1037.7 1532.74 1034.59 1535.95 Q1031.49 1539.15 1025.84 1544.91 Z" fill="#000000" fill-rule="evenodd" fill-opacity="1" /><path clip-path="url(#clip690)" d="M1061.98 1517.37 Q1058.37 1517.37 1056.54 1520.93 Q1054.73 1524.47 1054.73 1531.6 Q1054.73 1538.71 1056.54 1542.27 Q1058.37 1545.82 1061.98 1545.82 Q1065.61 1545.82 1067.42 1542.27 Q1069.25 1538.71 1069.25 1531.6 Q1069.25 1524.47 1067.42 1520.93 Q1065.61 1517.37 1061.98 1517.37 M1061.98 1513.66 Q1067.79 1513.66 1070.84 1518.27 Q1073.92 1522.85 1073.92 1531.6 Q1073.92 1540.33 1070.84 1544.94 Q1067.79 1549.52 1061.98 1549.52 Q1056.17 1549.52 1053.09 1544.94 Q1050.03 1540.33 1050.03 1531.6 Q1050.03 1522.85 1053.09 1518.27 Q1056.17 1513.66 1061.98 1513.66 Z" fill="#000000" fill-rule="evenodd" fill-opacity="1" /><path clip-path="url(#clip690)" d="M1479.87 1530.21 Q1483.23 1530.93 1485.1 1533.2 Q1487 1535.47 1487 1538.8 Q1487 1543.92 1483.48 1546.72 Q1479.97 1549.52 1473.48 1549.52 Q1471.31 1549.52 1468.99 1549.08 Q1466.7 1548.66 1464.25 1547.81 L1464.25 1543.29 Q1466.19 1544.43 1468.51 1545.01 Q1470.82 1545.58 1473.35 1545.58 Q1477.74 1545.58 1480.04 1543.85 Q1482.35 1542.11 1482.35 1538.8 Q1482.35 1535.75 1480.2 1534.03 Q1478.07 1532.3 1474.25 1532.3 L1470.22 1532.3 L1470.22 1528.45 L1474.43 1528.45 Q1477.88 1528.45 1479.71 1527.09 Q1481.54 1525.7 1481.54 1523.11 Q1481.54 1520.45 1479.64 1519.03 Q1477.77 1517.6 1474.25 1517.6 Q1472.33 1517.6 1470.13 1518.01 Q1467.93 1518.43 1465.29 1519.31 L1465.29 1515.14 Q1467.95 1514.4 1470.27 1514.03 Q1472.6 1513.66 1474.67 1513.66 Q1479.99 1513.66 1483.09 1516.09 Q1486.19 1518.5 1486.19 1522.62 Q1486.19 1525.49 1484.55 1527.48 Q1482.91 1529.45 1479.87 1530.21 Z" fill="#000000" fill-rule="evenodd" fill-opacity="1" /><path clip-path="url(#clip690)" d="M1505.87 1517.37 Q1502.26 1517.37 1500.43 1520.93 Q1498.62 1524.47 1498.62 1531.6 Q1498.62 1538.71 1500.43 1542.27 Q1502.26 1545.82 1505.87 1545.82 Q1509.5 1545.82 1511.31 1542.27 Q1513.14 1538.71 1513.14 1531.6 Q1513.14 1524.47 1511.31 1520.93 Q1509.5 1517.37 1505.87 1517.37 M1505.87 1513.66 Q1511.68 1513.66 1514.73 1518.27 Q1517.81 1522.85 1517.81 1531.6 Q1517.81 1540.33 1514.73 1544.94 Q1511.68 1549.52 1505.87 1549.52 Q1500.06 1549.52 1496.98 1544.94 Q1493.92 1540.33 1493.92 1531.6 Q1493.92 1522.85 1496.98 1518.27 Q1500.06 1513.66 1505.87 1513.66 Z" fill="#000000" fill-rule="evenodd" fill-opacity="1" /><path clip-path="url(#clip690)" d="M1923.16 1518.36 L1911.36 1536.81 L1923.16 1536.81 L1923.16 1518.36 M1921.93 1514.29 L1927.81 1514.29 L1927.81 1536.81 L1932.74 1536.81 L1932.74 1540.7 L1927.81 1540.7 L1927.81 1548.85 L1923.16 1548.85 L1923.16 1540.7 L1907.56 1540.7 L1907.56 1536.19 L1921.93 1514.29 Z" fill="#000000" fill-rule="evenodd" fill-opacity="1" /><path clip-path="url(#clip690)" d="M1950.48 1517.37 Q1946.87 1517.37 1945.04 1520.93 Q1943.23 1524.47 1943.23 1531.6 Q1943.23 1538.71 1945.04 1542.27 Q1946.87 1545.82 1950.48 1545.82 Q1954.11 1545.82 1955.92 1542.27 Q1957.74 1538.71 1957.74 1531.6 Q1957.74 1524.47 1955.92 1520.93 Q1954.11 1517.37 1950.48 1517.37 M1950.48 1513.66 Q1956.29 1513.66 1959.34 1518.27 Q1962.42 1522.85 1962.42 1531.6 Q1962.42 1540.33 1959.34 1544.94 Q1956.29 1549.52 1950.48 1549.52 Q1944.67 1549.52 1941.59 1544.94 Q1938.53 1540.33 1938.53 1531.6 Q1938.53 1522.85 1941.59 1518.27 Q1944.67 1513.66 1950.48 1513.66 Z" fill="#000000" fill-rule="evenodd" fill-opacity="1" /><polyline clip-path="url(#clip690)" style="stroke:#000000; stroke-linecap:round; stroke-linejoin:round; stroke-width:4; stroke-opacity:1; fill:none" points="
  140.95,1486.45 140.95,47.2441 
  "/>
<polyline clip-path="url(#clip690)" style="stroke:#000000; stroke-linecap:round; stroke-linejoin:round; stroke-width:4; stroke-opacity:1; fill:none" points="
  140.95,1251.75 159.848,1251.75 
  "/>
<polyline clip-path="url(#clip690)" style="stroke:#000000; stroke-linecap:round; stroke-linejoin:round; stroke-width:4; stroke-opacity:1; fill:none" points="
  140.95,928.482 159.848,928.482 
  "/>
<polyline clip-path="url(#clip690)" style="stroke:#000000; stroke-linecap:round; stroke-linejoin:round; stroke-width:4; stroke-opacity:1; fill:none" points="
  140.95,605.21 159.848,605.21 
  "/>
<polyline clip-path="url(#clip690)" style="stroke:#000000; stroke-linecap:round; stroke-linejoin:round; stroke-width:4; stroke-opacity:1; fill:none" points="
  140.95,281.939 159.848,281.939 
  "/>
<path clip-path="url(#clip690)" d="M51.6634 1234.47 L73.8855 1234.47 L73.8855 1236.46 L61.3393 1269.03 L56.4551 1269.03 L68.2606 1238.41 L51.6634 1238.41 L51.6634 1234.47 Z" fill="#000000" fill-rule="evenodd" fill-opacity="1" /><path clip-path="url(#clip690)" d="M93.0058 1237.55 Q89.3947 1237.55 87.566 1241.12 Q85.7605 1244.66 85.7605 1251.79 Q85.7605 1258.89 87.566 1262.46 Q89.3947 1266 93.0058 1266 Q96.64 1266 98.4456 1262.46 Q100.274 1258.89 100.274 1251.79 Q100.274 1244.66 98.4456 1241.12 Q96.64 1237.55 93.0058 1237.55 M93.0058 1233.85 Q98.8159 1233.85 101.871 1238.45 Q104.95 1243.04 104.95 1251.79 Q104.95 1260.51 101.871 1265.12 Q98.8159 1269.7 93.0058 1269.7 Q87.1956 1269.7 84.1169 1265.12 Q81.0614 1260.51 81.0614 1251.79 Q81.0614 1243.04 84.1169 1238.45 Q87.1956 1233.85 93.0058 1233.85 Z" fill="#000000" fill-rule="evenodd" fill-opacity="1" /><path clip-path="url(#clip690)" d="M52.6588 911.202 L74.8809 911.202 L74.8809 913.192 L62.3347 945.762 L57.4504 945.762 L69.2559 915.137 L52.6588 915.137 L52.6588 911.202 Z" fill="#000000" fill-rule="evenodd" fill-opacity="1" /><path clip-path="url(#clip690)" d="M84.0475 911.202 L102.404 911.202 L102.404 915.137 L88.3299 915.137 L88.3299 923.609 Q89.3484 923.262 90.3669 923.1 Q91.3854 922.915 92.4039 922.915 Q98.1909 922.915 101.571 926.086 Q104.95 929.257 104.95 934.674 Q104.95 940.252 101.478 943.354 Q98.0058 946.433 91.6864 946.433 Q89.5104 946.433 87.2419 946.063 Q84.9966 945.692 82.5892 944.951 L82.5892 940.252 Q84.6725 941.387 86.8947 941.942 Q89.1169 942.498 91.5938 942.498 Q95.5984 942.498 97.9363 940.391 Q100.274 938.285 100.274 934.674 Q100.274 931.063 97.9363 928.956 Q95.5984 926.85 91.5938 926.85 Q89.7188 926.85 87.8438 927.266 Q85.9919 927.683 84.0475 928.563 L84.0475 911.202 Z" fill="#000000" fill-rule="evenodd" fill-opacity="1" /><path clip-path="url(#clip690)" d="M62.8439 606.078 Q59.5106 606.078 57.5893 607.861 Q55.6912 609.643 55.6912 612.768 Q55.6912 615.893 57.5893 617.676 Q59.5106 619.458 62.8439 619.458 Q66.1772 619.458 68.0985 617.676 Q70.0198 615.87 70.0198 612.768 Q70.0198 609.643 68.0985 607.861 Q66.2004 606.078 62.8439 606.078 M58.168 604.088 Q55.1588 603.347 53.469 601.287 Q51.8023 599.227 51.8023 596.264 Q51.8023 592.12 54.7421 589.713 Q57.7051 587.305 62.8439 587.305 Q68.0059 587.305 70.9457 589.713 Q73.8855 592.12 73.8855 596.264 Q73.8855 599.227 72.1957 601.287 Q70.5291 603.347 67.543 604.088 Q70.9226 604.875 72.7976 607.166 Q74.6957 609.458 74.6957 612.768 Q74.6957 617.791 71.617 620.476 Q68.5615 623.162 62.8439 623.162 Q57.1264 623.162 54.0477 620.476 Q50.9921 617.791 50.9921 612.768 Q50.9921 609.458 52.8903 607.166 Q54.7884 604.875 58.168 604.088 M56.4551 596.703 Q56.4551 599.389 58.1217 600.893 Q59.8115 602.398 62.8439 602.398 Q65.8532 602.398 67.543 600.893 Q69.2559 599.389 69.2559 596.703 Q69.2559 594.018 67.543 592.514 Q65.8532 591.009 62.8439 591.009 Q59.8115 591.009 58.1217 592.514 Q56.4551 594.018 56.4551 596.703 Z" fill="#000000" fill-rule="evenodd" fill-opacity="1" /><path clip-path="url(#clip690)" d="M93.0058 591.009 Q89.3947 591.009 87.566 594.574 Q85.7605 598.115 85.7605 605.245 Q85.7605 612.352 87.566 615.916 Q89.3947 619.458 93.0058 619.458 Q96.64 619.458 98.4456 615.916 Q100.274 612.352 100.274 605.245 Q100.274 598.115 98.4456 594.574 Q96.64 591.009 93.0058 591.009 M93.0058 587.305 Q98.8159 587.305 101.871 591.912 Q104.95 596.495 104.95 605.245 Q104.95 613.972 101.871 618.578 Q98.8159 623.162 93.0058 623.162 Q87.1956 623.162 84.1169 618.578 Q81.0614 613.972 81.0614 605.245 Q81.0614 596.495 84.1169 591.912 Q87.1956 587.305 93.0058 587.305 Z" fill="#000000" fill-rule="evenodd" fill-opacity="1" /><path clip-path="url(#clip690)" d="M63.8393 282.807 Q60.506 282.807 58.5847 284.589 Q56.6865 286.372 56.6865 289.497 Q56.6865 292.622 58.5847 294.404 Q60.506 296.187 63.8393 296.187 Q67.1726 296.187 69.0939 294.404 Q71.0152 292.599 71.0152 289.497 Q71.0152 286.372 69.0939 284.589 Q67.1957 282.807 63.8393 282.807 M59.1634 280.816 Q56.1541 280.076 54.4643 278.015 Q52.7977 275.955 52.7977 272.992 Q52.7977 268.849 55.7375 266.441 Q58.7004 264.034 63.8393 264.034 Q69.0013 264.034 71.9411 266.441 Q74.8809 268.849 74.8809 272.992 Q74.8809 275.955 73.1911 278.015 Q71.5244 280.076 68.5383 280.816 Q71.9179 281.603 73.7929 283.895 Q75.6911 286.187 75.6911 289.497 Q75.6911 294.52 72.6124 297.205 Q69.5568 299.89 63.8393 299.89 Q58.1217 299.89 55.043 297.205 Q51.9875 294.52 51.9875 289.497 Q51.9875 286.187 53.8856 283.895 Q55.7838 281.603 59.1634 280.816 M57.4504 273.432 Q57.4504 276.117 59.1171 277.622 Q60.8069 279.127 63.8393 279.127 Q66.8485 279.127 68.5383 277.622 Q70.2513 276.117 70.2513 273.432 Q70.2513 270.747 68.5383 269.242 Q66.8485 267.738 63.8393 267.738 Q60.8069 267.738 59.1171 269.242 Q57.4504 270.747 57.4504 273.432 Z" fill="#000000" fill-rule="evenodd" fill-opacity="1" /><path clip-path="url(#clip690)" d="M84.0475 264.659 L102.404 264.659 L102.404 268.594 L88.3299 268.594 L88.3299 277.066 Q89.3484 276.719 90.3669 276.557 Q91.3854 276.372 92.4039 276.372 Q98.1909 276.372 101.571 279.543 Q104.95 282.715 104.95 288.131 Q104.95 293.71 101.478 296.812 Q98.0058 299.89 91.6864 299.89 Q89.5104 299.89 87.2419 299.52 Q84.9966 299.15 82.5892 298.409 L82.5892 293.71 Q84.6725 294.844 86.8947 295.4 Q89.1169 295.955 91.5938 295.955 Q95.5984 295.955 97.9363 293.849 Q100.274 291.742 100.274 288.131 Q100.274 284.52 97.9363 282.414 Q95.5984 280.307 91.5938 280.307 Q89.7188 280.307 87.8438 280.724 Q85.9919 281.14 84.0475 282.02 L84.0475 264.659 Z" fill="#000000" fill-rule="evenodd" fill-opacity="1" /><polyline clip-path="url(#clip692)" style="stroke:#009af9; stroke-linecap:round; stroke-linejoin:round; stroke-width:4; stroke-opacity:1; fill:none" points="
  203.548,1187.1 247.944,1187.1 292.34,1381.06 336.736,1316.41 381.132,1381.06 425.528,1316.41 469.924,1381.06 514.32,993.136 558.716,799.173 603.112,475.902 
  647.508,281.939 691.904,217.285 736.3,87.9763 780.696,217.285 825.092,281.939 869.488,217.285 913.883,346.593 958.279,669.865 1002.68,799.173 1047.07,928.482 
  1091.47,1057.79 1135.86,1187.1 1180.26,1251.75 1224.66,1251.75 1269.05,1316.41 1313.45,1316.41 1357.84,1316.41 1402.24,1316.41 1446.63,1445.72 1491.03,1381.06 
  1535.43,1381.06 1579.82,1057.79 1624.22,863.827 1668.61,799.173 1713.01,475.902 1757.41,346.593 1801.8,346.593 1846.2,540.556 1890.59,605.21 1934.99,734.519 
  1979.39,669.865 2023.78,734.519 2068.18,1057.79 2112.57,1122.44 2156.97,1251.75 2201.37,1251.75 2245.76,1381.06 2290.16,1445.72 
  "/>
<circle clip-path="url(#clip692)" cx="203.548" cy="1187.1" r="14.4" fill="#009af9" fill-rule="evenodd" fill-opacity="1" stroke="#000000" stroke-opacity="1" stroke-width="3.2"/>
<circle clip-path="url(#clip692)" cx="247.944" cy="1187.1" r="14.4" fill="#009af9" fill-rule="evenodd" fill-opacity="1" stroke="#000000" stroke-opacity="1" stroke-width="3.2"/>
<circle clip-path="url(#clip692)" cx="292.34" cy="1381.06" r="14.4" fill="#009af9" fill-rule="evenodd" fill-opacity="1" stroke="#000000" stroke-opacity="1" stroke-width="3.2"/>
<circle clip-path="url(#clip692)" cx="336.736" cy="1316.41" r="14.4" fill="#009af9" fill-rule="evenodd" fill-opacity="1" stroke="#000000" stroke-opacity="1" stroke-width="3.2"/>
<circle clip-path="url(#clip692)" cx="381.132" cy="1381.06" r="14.4" fill="#009af9" fill-rule="evenodd" fill-opacity="1" stroke="#000000" stroke-opacity="1" stroke-width="3.2"/>
<circle clip-path="url(#clip692)" cx="425.528" cy="1316.41" r="14.4" fill="#009af9" fill-rule="evenodd" fill-opacity="1" stroke="#000000" stroke-opacity="1" stroke-width="3.2"/>
<circle clip-path="url(#clip692)" cx="469.924" cy="1381.06" r="14.4" fill="#009af9" fill-rule="evenodd" fill-opacity="1" stroke="#000000" stroke-opacity="1" stroke-width="3.2"/>
<circle clip-path="url(#clip692)" cx="514.32" cy="993.136" r="14.4" fill="#009af9" fill-rule="evenodd" fill-opacity="1" stroke="#000000" stroke-opacity="1" stroke-width="3.2"/>
<circle clip-path="url(#clip692)" cx="558.716" cy="799.173" r="14.4" fill="#009af9" fill-rule="evenodd" fill-opacity="1" stroke="#000000" stroke-opacity="1" stroke-width="3.2"/>
<circle clip-path="url(#clip692)" cx="603.112" cy="475.902" r="14.4" fill="#009af9" fill-rule="evenodd" fill-opacity="1" stroke="#000000" stroke-opacity="1" stroke-width="3.2"/>
<circle clip-path="url(#clip692)" cx="647.508" cy="281.939" r="14.4" fill="#009af9" fill-rule="evenodd" fill-opacity="1" stroke="#000000" stroke-opacity="1" stroke-width="3.2"/>
<circle clip-path="url(#clip692)" cx="691.904" cy="217.285" r="14.4" fill="#009af9" fill-rule="evenodd" fill-opacity="1" stroke="#000000" stroke-opacity="1" stroke-width="3.2"/>
<circle clip-path="url(#clip692)" cx="736.3" cy="87.9763" r="14.4" fill="#009af9" fill-rule="evenodd" fill-opacity="1" stroke="#000000" stroke-opacity="1" stroke-width="3.2"/>
<circle clip-path="url(#clip692)" cx="780.696" cy="217.285" r="14.4" fill="#009af9" fill-rule="evenodd" fill-opacity="1" stroke="#000000" stroke-opacity="1" stroke-width="3.2"/>
<circle clip-path="url(#clip692)" cx="825.092" cy="281.939" r="14.4" fill="#009af9" fill-rule="evenodd" fill-opacity="1" stroke="#000000" stroke-opacity="1" stroke-width="3.2"/>
<circle clip-path="url(#clip692)" cx="869.488" cy="217.285" r="14.4" fill="#009af9" fill-rule="evenodd" fill-opacity="1" stroke="#000000" stroke-opacity="1" stroke-width="3.2"/>
<circle clip-path="url(#clip692)" cx="913.883" cy="346.593" r="14.4" fill="#009af9" fill-rule="evenodd" fill-opacity="1" stroke="#000000" stroke-opacity="1" stroke-width="3.2"/>
<circle clip-path="url(#clip692)" cx="958.279" cy="669.865" r="14.4" fill="#009af9" fill-rule="evenodd" fill-opacity="1" stroke="#000000" stroke-opacity="1" stroke-width="3.2"/>
<circle clip-path="url(#clip692)" cx="1002.68" cy="799.173" r="14.4" fill="#009af9" fill-rule="evenodd" fill-opacity="1" stroke="#000000" stroke-opacity="1" stroke-width="3.2"/>
<circle clip-path="url(#clip692)" cx="1047.07" cy="928.482" r="14.4" fill="#009af9" fill-rule="evenodd" fill-opacity="1" stroke="#000000" stroke-opacity="1" stroke-width="3.2"/>
<circle clip-path="url(#clip692)" cx="1091.47" cy="1057.79" r="14.4" fill="#009af9" fill-rule="evenodd" fill-opacity="1" stroke="#000000" stroke-opacity="1" stroke-width="3.2"/>
<circle clip-path="url(#clip692)" cx="1135.86" cy="1187.1" r="14.4" fill="#009af9" fill-rule="evenodd" fill-opacity="1" stroke="#000000" stroke-opacity="1" stroke-width="3.2"/>
<circle clip-path="url(#clip692)" cx="1180.26" cy="1251.75" r="14.4" fill="#009af9" fill-rule="evenodd" fill-opacity="1" stroke="#000000" stroke-opacity="1" stroke-width="3.2"/>
<circle clip-path="url(#clip692)" cx="1224.66" cy="1251.75" r="14.4" fill="#009af9" fill-rule="evenodd" fill-opacity="1" stroke="#000000" stroke-opacity="1" stroke-width="3.2"/>
<circle clip-path="url(#clip692)" cx="1269.05" cy="1316.41" r="14.4" fill="#009af9" fill-rule="evenodd" fill-opacity="1" stroke="#000000" stroke-opacity="1" stroke-width="3.2"/>
<circle clip-path="url(#clip692)" cx="1313.45" cy="1316.41" r="14.4" fill="#009af9" fill-rule="evenodd" fill-opacity="1" stroke="#000000" stroke-opacity="1" stroke-width="3.2"/>
<circle clip-path="url(#clip692)" cx="1357.84" cy="1316.41" r="14.4" fill="#009af9" fill-rule="evenodd" fill-opacity="1" stroke="#000000" stroke-opacity="1" stroke-width="3.2"/>
<circle clip-path="url(#clip692)" cx="1402.24" cy="1316.41" r="14.4" fill="#009af9" fill-rule="evenodd" fill-opacity="1" stroke="#000000" stroke-opacity="1" stroke-width="3.2"/>
<circle clip-path="url(#clip692)" cx="1446.63" cy="1445.72" r="14.4" fill="#009af9" fill-rule="evenodd" fill-opacity="1" stroke="#000000" stroke-opacity="1" stroke-width="3.2"/>
<circle clip-path="url(#clip692)" cx="1491.03" cy="1381.06" r="14.4" fill="#009af9" fill-rule="evenodd" fill-opacity="1" stroke="#000000" stroke-opacity="1" stroke-width="3.2"/>
<circle clip-path="url(#clip692)" cx="1535.43" cy="1381.06" r="14.4" fill="#009af9" fill-rule="evenodd" fill-opacity="1" stroke="#000000" stroke-opacity="1" stroke-width="3.2"/>
<circle clip-path="url(#clip692)" cx="1579.82" cy="1057.79" r="14.4" fill="#009af9" fill-rule="evenodd" fill-opacity="1" stroke="#000000" stroke-opacity="1" stroke-width="3.2"/>
<circle clip-path="url(#clip692)" cx="1624.22" cy="863.827" r="14.4" fill="#009af9" fill-rule="evenodd" fill-opacity="1" stroke="#000000" stroke-opacity="1" stroke-width="3.2"/>
<circle clip-path="url(#clip692)" cx="1668.61" cy="799.173" r="14.4" fill="#009af9" fill-rule="evenodd" fill-opacity="1" stroke="#000000" stroke-opacity="1" stroke-width="3.2"/>
<circle clip-path="url(#clip692)" cx="1713.01" cy="475.902" r="14.4" fill="#009af9" fill-rule="evenodd" fill-opacity="1" stroke="#000000" stroke-opacity="1" stroke-width="3.2"/>
<circle clip-path="url(#clip692)" cx="1757.41" cy="346.593" r="14.4" fill="#009af9" fill-rule="evenodd" fill-opacity="1" stroke="#000000" stroke-opacity="1" stroke-width="3.2"/>
<circle clip-path="url(#clip692)" cx="1801.8" cy="346.593" r="14.4" fill="#009af9" fill-rule="evenodd" fill-opacity="1" stroke="#000000" stroke-opacity="1" stroke-width="3.2"/>
<circle clip-path="url(#clip692)" cx="1846.2" cy="540.556" r="14.4" fill="#009af9" fill-rule="evenodd" fill-opacity="1" stroke="#000000" stroke-opacity="1" stroke-width="3.2"/>
<circle clip-path="url(#clip692)" cx="1890.59" cy="605.21" r="14.4" fill="#009af9" fill-rule="evenodd" fill-opacity="1" stroke="#000000" stroke-opacity="1" stroke-width="3.2"/>
<circle clip-path="url(#clip692)" cx="1934.99" cy="734.519" r="14.4" fill="#009af9" fill-rule="evenodd" fill-opacity="1" stroke="#000000" stroke-opacity="1" stroke-width="3.2"/>
<circle clip-path="url(#clip692)" cx="1979.39" cy="669.865" r="14.4" fill="#009af9" fill-rule="evenodd" fill-opacity="1" stroke="#000000" stroke-opacity="1" stroke-width="3.2"/>
<circle clip-path="url(#clip692)" cx="2023.78" cy="734.519" r="14.4" fill="#009af9" fill-rule="evenodd" fill-opacity="1" stroke="#000000" stroke-opacity="1" stroke-width="3.2"/>
<circle clip-path="url(#clip692)" cx="2068.18" cy="1057.79" r="14.4" fill="#009af9" fill-rule="evenodd" fill-opacity="1" stroke="#000000" stroke-opacity="1" stroke-width="3.2"/>
<circle clip-path="url(#clip692)" cx="2112.57" cy="1122.44" r="14.4" fill="#009af9" fill-rule="evenodd" fill-opacity="1" stroke="#000000" stroke-opacity="1" stroke-width="3.2"/>
<circle clip-path="url(#clip692)" cx="2156.97" cy="1251.75" r="14.4" fill="#009af9" fill-rule="evenodd" fill-opacity="1" stroke="#000000" stroke-opacity="1" stroke-width="3.2"/>
<circle clip-path="url(#clip692)" cx="2201.37" cy="1251.75" r="14.4" fill="#009af9" fill-rule="evenodd" fill-opacity="1" stroke="#000000" stroke-opacity="1" stroke-width="3.2"/>
<circle clip-path="url(#clip692)" cx="2245.76" cy="1381.06" r="14.4" fill="#009af9" fill-rule="evenodd" fill-opacity="1" stroke="#000000" stroke-opacity="1" stroke-width="3.2"/>
<circle clip-path="url(#clip692)" cx="2290.16" cy="1445.72" r="14.4" fill="#009af9" fill-rule="evenodd" fill-opacity="1" stroke="#000000" stroke-opacity="1" stroke-width="3.2"/>
</svg>
